<?xml version="1.0" encoding="utf-8"?>
<!-- Generator: Adobe Illustrator 26.5.0, SVG Export Plug-In . SVG Version: 6.00 Build 0)  -->
<svg version="1.1" id="Capa_1" xmlns="http://www.w3.org/2000/svg" xmlns:xlink="http://www.w3.org/1999/xlink" x="0px" y="0px"
	 viewBox="0 0 89.9 64.8" style="enable-background:new 0 0 89.9 64.8;" xml:space="preserve">
<path d="M87.6,35.3h-1.4c-0.5-2.4-1.4-3.9-2.7-4.5s-3-0.5-5.2,0.5c-0.3,0.1-0.5,0.2-0.8,0.3c-0.2-1.5-0.6-5.3,0.1-9.7
	c1,0.2,1.9,0.4,2.7,0.4c1.6,0,2.9-0.5,3.7-1.5c3.7-4.1-1-15-1.5-16.2c-0.1-0.2-0.2-0.4-0.5-0.4c-0.2-0.1-0.4,0-0.6,0.1
	c-1.2,0.7-11.3,6.8-10.7,12.3c0.2,2.1,2.1,3.8,5.4,4.9c-0.8,4.6-0.4,8.5-0.2,10.2c-0.6-0.1-1.1-0.3-1.8-0.5c-1.1-0.4-2.4-0.8-4-0.7
	c-2.6,0.2-4.1,2.4-4.4,4.8h-2.3c-1.3,0-2.3,1-2.3,2.3v1.2c0,1.3,1.1,2.3,2.3,2.3h0.9l1.9,21.1c0.1,1.5,1.4,2.6,2.8,2.6H82
	c1.5,0,2.7-1.1,2.8-2.6l1.9-21.1h0.9c1.3,0,2.3-1,2.3-2.3v-1.2C89.9,36.3,88.9,35.3,87.6,35.3L87.6,35.3z M72.2,16.4
	c-0.4-3.5,6-8.3,9.2-10.4c1.4,3.6,3.8,11.2,1.4,13.8c-0.9,1-2.6,1.2-5,0.6c0.5-2.3,1.3-4.8,2.6-7.1c0.2-0.4,0.1-0.8-0.3-1
	c-0.4-0.2-0.8-0.1-1,0.3c-1.3,2.4-2.2,4.9-2.7,7.4C73.8,19,72.4,17.8,72.2,16.4z M70.3,32c1.3-0.1,2.4,0.3,3.4,0.6
	c1.5,0.5,3.1,1,5.2,0.1c1.7-0.8,3-1,3.9-0.6c0.8,0.4,1.4,1.5,1.8,3.2H67.3C67.5,33.6,68.6,32.1,70.3,32L70.3,32z M83.4,62.1
	c-0.1,0.7-0.6,1.2-1.3,1.2H69.1c-0.7,0-1.3-0.5-1.3-1.2l-1.9-20.9h19.3L83.4,62.1z M88.4,38.8c0,0.5-0.4,0.8-0.8,0.8H63.5
	c-0.5,0-0.8-0.4-0.8-0.8v-1.2c0-0.5,0.4-0.8,0.8-0.8h24.1c0.5,0,0.8,0.4,0.8,0.8V38.8z"/>
<path d="M26.4,35.3H25c-0.6-2.9-2.4-3.4-4.3-4c-0.9-0.2-1.9-0.5-2.9-1.1c-0.8-0.4-1.5-0.6-2.2-0.7c-0.1-1.1-0.3-3.5-0.8-6.4
	c3.1-1.1,4.8-2.7,5-4.8C20.3,13,10.2,6.9,9.1,6.2C8.9,6.1,8.6,6.1,8.4,6.1S8.1,6.3,8,6.5C7.4,7.8,2.8,18.6,6.5,22.7
	c0.9,1,2.1,1.5,3.7,1.5c0.9,0,2-0.2,3.1-0.5c0.4,2.6,0.6,4.8,0.7,5.9c-0.7,0.1-1.4,0.2-2,0.4c-0.9,0.2-1.8,0.4-2.9,0.5
	c-2.6,0.2-4.1,2.4-4.4,4.8H2.3c-1.3,0-2.3,1-2.3,2.3v1.2c0,1.3,1.1,2.3,2.3,2.3h0.9l1.9,21.1c0.1,1.5,1.4,2.6,2.9,2.6h12.9
	c1.5,0,2.7-1.1,2.9-2.6l1.9-21.1h0.9c1.3,0,2.3-1,2.3-2.3v-1.2C28.8,36.4,27.7,35.3,26.4,35.3L26.4,35.3z M7.6,21.7
	C5.2,19.1,7.6,11.5,9,7.9c3.3,2.1,9.6,6.8,9.2,10.4c-0.1,1.4-1.4,2.6-3.8,3.5c-0.5-2.4-1.1-4.9-2-7.1c-0.2-0.4-0.6-0.6-1-0.4
	c-0.4,0.2-0.6,0.6-0.4,1c0.9,2.2,1.5,4.7,2,7C10.4,23,8.6,22.8,7.6,21.7z M9.1,32c1.2-0.1,2.3-0.3,3.2-0.5c1.7-0.4,3-0.7,4.7,0.2
	c1.2,0.6,2.2,0.9,3.2,1.2c1.8,0.5,2.7,0.8,3.2,2.5H6.1C6.4,33.6,7.4,32.1,9.1,32z M22.2,62.1c-0.1,0.7-0.6,1.2-1.4,1.2H7.9
	c-0.7,0-1.3-0.5-1.4-1.2L4.7,41.1H24C24,41.1,22.2,62.1,22.2,62.1z M27.2,38.8c0,0.5-0.4,0.8-0.8,0.8H2.3c-0.5,0-0.8-0.4-0.8-0.8
	v-1.2c0-0.5,0.4-0.8,0.8-0.8h24.1c0.5,0,0.8,0.4,0.8,0.8V38.8z"/>
<path d="M57.5,16.6c0.6,0,1.2-0.1,1.8-0.4c5-2.3,5-14.1,5-15.5c0-0.2-0.1-0.4-0.3-0.6C63.8,0,63.6,0,63.4,0
	c-1.3,0.2-13,1.8-14.6,7.1c-0.6,1.9,0.3,4,2.5,6.1c-2.5,3.5-4.1,6.6-5.1,9.3c-1.4-2.8-3-5.1-4.6-6.9c2-2.1,2.8-4.1,2.2-5.9
	c-1.6-5.3-13.3-6.9-14.6-7.1c-0.2,0-0.4,0-0.6,0.2s-0.2,0.3-0.3,0.6c0,1.3,0,13.2,5,15.5c0.5,0.3,1.1,0.4,1.8,0.4
	c1.6,0,3.4-0.9,5.4-2.6c1.7,2,3.6,4.7,5,7.9c-1,3.1-1.2,5.3-1.2,6.3c-0.4,0-0.7-0.1-1.1-0.1c-1-0.1-2.1-0.3-3.5-0.2
	c-2.6,0.2-4.1,2.4-4.4,4.8h-2.3c-1.3,0-2.3,1-2.3,2.3v1.2c0,1.3,1,2.3,2.3,2.3h0.9l1.9,21.1c0.1,1.5,1.4,2.6,2.8,2.6h12.9
	c1.5,0,2.7-1.1,2.9-2.6l1.9-21.1H57c1.3,0,2.3-1,2.3-2.3v-1.2c0-1.3-1-2.3-2.3-2.3h-1.4c-0.6-2.9-1.7-4.6-3.2-5.4
	c-1.3-0.6-2.9-0.5-4.7,0.4c-0.7,0.3-1.3,0.5-1.9,0.6c0.1-1.8,0.8-8.4,6.7-16.6C54.3,15.8,56,16.6,57.5,16.6L57.5,16.6z M33.9,17.5
	c-3.2-1.5-4-9.4-4.1-13.2c3.8,0.6,11.5,2.5,12.5,5.9c0.4,1.3-0.2,2.7-1.8,4.3c-2.5-2.7-4.6-4.1-4.8-4.2c-0.3-0.2-0.8-0.1-1,0.2
	c-0.2,0.3-0.1,0.8,0.2,1c0,0,2.1,1.4,4.5,4C37.1,17.5,35.3,18.2,33.9,17.5L33.9,17.5z M50.2,7.5c1-3.4,8.7-5.3,12.5-5.9
	c-0.1,3.9-0.9,11.8-4.1,13.2c-1.4,0.6-3.2,0-5.4-1.8c1.3-1.8,2.9-3.6,4.8-5.5c0.3-0.3,0.3-0.8,0-1.1c-0.3-0.3-0.8-0.3-1.1,0
	c-1.9,1.9-3.5,3.8-4.8,5.6C50.5,10.3,49.8,8.8,50.2,7.5L50.2,7.5z M52.8,62.1c-0.1,0.7-0.6,1.2-1.4,1.2H38.5c-0.7,0-1.3-0.5-1.3-1.2
	l-1.9-20.9h19.3C54.6,41.1,52.8,62.1,52.8,62.1z M57.8,37.6v1.2c0,0.5-0.4,0.8-0.8,0.8H32.9c-0.5,0-0.8-0.4-0.8-0.8v-1.2
	c0-0.5,0.4-0.8,0.8-0.8H57C57.5,36.8,57.8,37.2,57.8,37.6z M48.3,31.6c1.4-0.7,2.6-0.8,3.4-0.4c1,0.5,1.8,1.8,2.3,4.1H36.7
	c0.2-1.7,1.2-3.2,3-3.3c1.2-0.1,2.2,0.1,3.2,0.2C44.6,32.4,46.2,32.6,48.3,31.6z"/>
</svg>
