<svg width="234" height="91" viewBox="0 0 234 91" fill="none" xmlns="http://www.w3.org/2000/svg">
<g clip-path="url(#clip0_68_3586)">
<path d="M40.9051 55.15H19.0002L14.2494 68.9798H0L21.6416 10.9295L27.8863 29.1639L22.6949 44.14H51.6372L60.8754 68.9798H45.7445L40.9051 55.15ZM50.3179 40.6152H35.8911L24.8069 8.63975L37.5624 6.26123L50.3179 40.6152Z" fill="#122928"/>
<path d="M86.6496 33.3936H84.6262C79.8755 33.3936 74.7728 33.8349 70.374 34.4511H64.2153V24.7621L77.8494 22.0311V26.963C80.3994 24.937 83.8308 23.3522 87.5255 22.6473C89.2855 22.2948 91.0456 22.0311 92.9802 22.1199C102.834 22.7361 108.815 31.5452 108.815 45.4639C108.815 64.8418 96.0596 70.0401 87.4395 70.0401C85.5049 70.0401 83.6561 69.7764 81.9848 69.3351V58.2363C83.2154 58.5 84.5348 58.6776 85.7682 58.6776H86.3835C91.3089 58.3251 94.2996 55.0668 94.2996 45.7275C94.2996 37.2709 91.5722 33.7489 86.6468 33.3964L86.6496 33.3936ZM64.218 37.9731H78.4702V91H64.218V37.9731Z" fill="#122928"/>
<path d="M137.497 33.3936H135.474C130.723 33.3936 125.62 33.8349 121.221 34.4511H115.063V24.7621L128.697 22.0311V26.963C131.247 24.937 134.678 23.3522 138.373 22.6473C140.133 22.2948 141.893 22.0311 143.828 22.1199C153.681 22.7361 159.662 31.5452 159.662 45.4639C159.662 64.8418 146.907 70.0401 138.287 70.0401C136.352 70.0401 134.503 69.7764 132.832 69.3351V58.2363C134.063 58.5 135.382 58.6776 136.615 58.6776H137.231C142.156 58.3251 145.147 55.0668 145.147 45.7275C145.147 37.2709 142.419 33.7489 137.494 33.3964L137.497 33.3936ZM115.065 37.9731H129.318V91H115.065V37.9731Z" fill="#122928"/>
<path d="M169.577 68.9799L166.528 38.6364H180.78L177.731 68.9799H169.577Z" fill="#122928"/>
<path d="M230.571 59.2021C227.051 65.9852 220.014 70.0373 210.69 70.0373C196.615 70.0373 187.466 60.7009 187.466 46.0772C187.466 35.1532 192.92 27.2267 201.892 24.1432V46.0772C201.892 54.4451 205.146 59.2021 210.69 59.2021H230.571ZM232.154 55.7662H217.639C218.783 53.5653 219.573 50.3042 219.573 46.3409C219.573 37.8842 216.405 32.9524 210.512 32.9524C208.93 32.9524 206.992 33.3048 205.41 33.921V22.9109C206.992 22.3836 208.841 22.0311 210.953 22.0311C224.765 22.0311 234 31.5452 234 46.08C234 49.8684 233.385 53.038 232.151 55.769L232.154 55.7662Z" fill="#122928"/>
<path d="M175.641 33.0578C175.833 33.1105 175.991 33.1216 176.182 33.1744C177.809 33.4463 179.458 33.4075 181.052 33.0522C182.646 32.6942 184.22 32.0614 185.539 31.1344C185.622 31.0623 185.669 30.9485 185.717 30.8319C185.686 30.7126 185.614 30.6293 185.5 30.5821C184.586 30.2019 183.593 29.8189 182.557 29.5469C181.709 29.3304 180.816 29.2249 179.987 29.286C179.239 29.3498 178.482 29.4914 177.681 29.7495C176.359 30.1658 175.178 30.7486 173.798 31.4342C173.898 31.1261 173.998 30.8208 174.136 30.5544C175.101 28.0315 176.287 25.6835 177.737 23.4715C178.039 23.6492 178.374 23.8712 178.682 23.9711C179.211 24.2431 179.824 24.4457 180.364 24.5623C181.944 24.9508 183.671 24.9175 185.348 24.4873C186.828 24.0821 188.286 23.4021 189.686 22.4807C189.769 22.4086 189.816 22.2948 189.827 22.1366C189.797 22.0172 189.725 21.934 189.611 21.8868C188.696 21.5065 187.743 21.1652 186.781 20.8987C185.855 20.6767 185.04 20.5768 184.253 20.599C183.546 20.6267 182.754 20.7267 181.958 20.9071C180.683 21.2096 179.466 21.7508 178.41 22.3031C179.5 20.7711 180.697 19.3667 181.966 18.0428C183.363 16.6107 184.86 15.384 186.468 14.2822L186.504 14.3238L186.54 14.3654C186.612 14.4487 186.725 14.4959 186.762 14.5375C187.43 15.0565 188.142 15.5394 188.857 15.9446C190.29 16.7523 191.936 17.3018 193.563 17.5766C194.417 17.7153 195.273 17.7764 196.061 17.7542C197.003 17.7431 197.763 17.5238 198.372 17.213C198.455 17.1408 198.539 17.0687 198.544 16.991C198.55 16.9132 198.519 16.7939 198.447 16.7079C197.79 16.0334 197.047 15.4312 196.224 14.9011C194.797 14.0129 193.192 13.4273 191.482 13.2275C190.395 13.0721 189.256 13.1082 188.147 13.2636C189.946 12.2145 191.97 11.3375 194.539 10.5021C195.465 10.7241 196.316 10.8656 197.175 10.9267C199.24 11.1127 201.102 10.8157 202.718 10.144C203.73 9.70552 206.363 7.42136 207.139 6.9662C206.358 7.49907 207.957 6.47495 207.139 6.9662C207.222 6.89403 207.283 7.13272 207.139 6.9662C207.103 6.92456 207.217 6.97175 207.139 6.9662C207.062 6.96064 207.217 6.97175 207.139 6.9662C206.906 6.94954 207.372 6.98285 207.139 6.9662C206.748 6.93844 207.566 7.03558 207.139 6.9662C206.712 6.89681 204.905 6.41389 204.478 6.3445C202.685 6.21684 200.573 6.14468 198.68 6.83298C197.028 7.46022 195.653 8.57871 194.4 9.66667C193.838 9.86094 193.317 10.0219 192.79 10.2578C193.095 9.84707 193.361 9.39468 193.586 8.98114C194.267 7.65727 194.722 6.23626 194.946 4.72089C195.171 3.20552 195.043 1.70403 194.719 0.230286C194.689 0.110943 194.617 0.0276813 194.539 0.0221305C194.425 -0.0250514 194.306 0.00547804 194.22 0.0776386C193.558 0.579987 193.003 1.20723 192.485 1.8761C191.651 3.11116 191.077 4.56269 190.972 6.04754C190.922 6.74971 190.944 7.53793 191.069 8.52875C191.18 9.16432 191.254 9.75825 191.368 10.3938L191.454 10.8323C189.558 11.5983 187.967 12.467 186.448 13.419C185.545 13.9824 184.633 14.7013 183.76 15.3868C183.943 15.0065 184.051 14.6235 184.234 14.2433C185.539 10.7657 185.814 8.0375 185.043 5.62567C185.013 5.50633 184.941 5.42307 184.785 5.41197C184.672 5.36479 184.588 5.43695 184.503 5.50911C183.787 6.20296 183.192 6.86906 182.673 7.53793C182.149 8.28451 181.786 8.96726 181.617 9.69997C181.401 10.5492 181.376 11.4485 181.398 12.2367C181.407 13.7687 181.692 15.2813 182.172 16.7662C180.697 18.1927 179.333 19.7414 178.078 21.4205C178.141 21.0708 178.241 20.7655 178.305 20.4158C178.53 18.9004 178.521 17.3684 178.202 15.817C177.881 14.2627 177.315 12.8501 176.506 11.5734C176.434 11.4901 176.362 11.4068 176.243 11.4374C176.165 11.4318 176.004 11.4984 175.999 11.5761C175.47 12.4032 175.09 13.3163 174.826 14.2794C174.397 15.8975 174.43 17.6265 174.865 19.2279C175.276 20.6323 176.002 21.9784 176.986 23.0302C176.767 23.3688 176.545 23.7047 176.326 24.0433C175.572 25.2839 174.887 26.6105 174.283 27.9399C174.203 27.4237 174.122 26.9075 173.956 26.4634C173.515 24.9397 172.8 23.4355 171.833 22.1504C170.866 20.8654 169.654 19.7192 168.299 18.9143C168.185 18.8671 168.108 18.8616 167.986 18.8921C167.867 18.9226 167.82 19.0364 167.814 19.1141C167.634 20.0051 167.645 20.9459 167.775 21.859C168.055 23.4493 168.729 24.9897 169.81 26.3219C170.783 27.5292 172.077 28.6033 173.624 29.4609C172.246 32.8552 171.442 36.4105 171.193 39.9241C171.187 40.0019 171.218 40.1212 171.29 40.2072L171.362 40.2905C171.512 40.3793 171.669 40.3904 171.83 40.3238C171.991 40.2572 172.038 40.1434 172.049 39.9852C172.227 37.4846 172.681 34.9673 173.441 32.5471C173.632 32.5998 173.826 32.6526 174.017 32.7053C174.522 32.7802 175.098 32.9384 175.639 33.0578H175.641Z" fill="#122928"/>
</g>
<defs>
<clipPath id="clip0_68_3586">
<rect width="234" height="91" fill="white"/>
</clipPath>
</defs>
</svg>
