<?xml version="1.0" encoding="utf-8"?>
<!-- Generator: Adobe Illustrator 26.5.0, SVG Export Plug-In . SVG Version: 6.00 Build 0)  -->
<svg version="1.1" id="Capa_1" xmlns="http://www.w3.org/2000/svg" xmlns:xlink="http://www.w3.org/1999/xlink" x="0px" y="0px"
	 viewBox="0 0 234 91" style="enable-background:new 0 0 234 91;" xml:space="preserve">
<style type="text/css">
	.st0{clip-path:url(#SVGID_00000155830130298157172540000018042517372155714736_);}
	.st1{fill:#D0D3AB;}
</style>
<g>
	<defs>
		<rect id="SVGID_1_" width="234" height="91"/>
	</defs>
	<clipPath id="SVGID_00000039121256829707597960000012214192290581266602_">
		<use xlink:href="#SVGID_1_"  style="overflow:visible;"/>
	</clipPath>
	<g style="clip-path:url(#SVGID_00000039121256829707597960000012214192290581266602_);">
		<path class="st1" d="M40.9,55.2H19L14.2,69H0l21.6-58.1l6.2,18.2l-5.2,15h28.9L60.9,69H45.7L40.9,55.2z M50.3,40.6H35.9l-11.1-32
			l12.8-2.4L50.3,40.6z"/>
		<path class="st1" d="M86.6,33.4h-2c-4.8,0-9.9,0.4-14.3,1.1h-6.2v-9.7L77.8,22V27c2.5-2,6-3.6,9.7-4.3c1.8-0.4,3.5-0.6,5.5-0.5
			c9.9,0.6,15.8,9.4,15.8,23.3c0,19.4-12.8,24.6-21.4,24.6c-1.9,0-3.8-0.3-5.5-0.7V58.2c1.2,0.3,2.5,0.4,3.8,0.4h0.6
			c4.9-0.4,7.9-3.6,7.9-13C94.3,37.3,91.6,33.7,86.6,33.4L86.6,33.4z M64.2,38h14.3v53H64.2V38z"/>
		<path class="st1" d="M137.5,33.4h-2c-4.8,0-9.9,0.4-14.3,1.1h-6.2v-9.7l13.6-2.7V27c2.5-2,6-3.6,9.7-4.3c1.8-0.4,3.5-0.6,5.5-0.5
			c9.9,0.6,15.8,9.4,15.8,23.3c0,19.4-12.8,24.6-21.4,24.6c-1.9,0-3.8-0.3-5.5-0.7V58.2c1.2,0.3,2.6,0.4,3.8,0.4h0.6
			c4.9-0.4,7.9-3.6,7.9-13C145.1,37.3,142.4,33.7,137.5,33.4L137.5,33.4z M115.1,38h14.3v53h-14.3V38z"/>
		<path class="st1" d="M169.6,69l-3-30.3h14.3l-3,30.3H169.6z"/>
		<path class="st1" d="M230.6,59.2C227.1,66,220,70,210.7,70c-14.1,0-23.2-9.3-23.2-24c0-10.9,5.5-18.9,14.4-21.9v21.9
			c0,8.4,3.3,13.1,8.8,13.1H230.6z M232.2,55.8h-14.5c1.1-2.2,1.9-5.5,1.9-9.4c0-8.5-3.2-13.4-9.1-13.4c-1.6,0-3.5,0.4-5.1,1v-11
			c1.6-0.5,3.4-0.9,5.5-0.9c13.8,0,23,9.5,23,24C234,49.9,233.4,53,232.2,55.8L232.2,55.8z"/>
		<path class="st1" d="M175.6,33.1c0.2,0.1,0.3,0.1,0.5,0.1c1.6,0.3,3.3,0.2,4.9-0.1c1.6-0.4,3.2-1,4.5-1.9c0.1-0.1,0.1-0.2,0.2-0.3
			c0-0.1-0.1-0.2-0.2-0.2c-0.9-0.4-1.9-0.8-2.9-1c-0.8-0.2-1.7-0.3-2.6-0.3c-0.7,0.1-1.5,0.2-2.3,0.5c-1.3,0.4-2.5,1-3.9,1.7
			c0.1-0.3,0.2-0.6,0.3-0.9c1-2.5,2.2-4.9,3.6-7.1c0.3,0.2,0.6,0.4,0.9,0.5c0.5,0.3,1.1,0.5,1.7,0.6c1.6,0.4,3.3,0.4,5-0.1
			c1.5-0.4,2.9-1.1,4.3-2c0.1-0.1,0.1-0.2,0.1-0.3c0-0.1-0.1-0.2-0.2-0.2c-0.9-0.4-1.9-0.7-2.8-1c-0.9-0.2-1.7-0.3-2.5-0.3
			c-0.7,0-1.5,0.1-2.3,0.3c-1.3,0.3-2.5,0.8-3.5,1.4c1.1-1.5,2.3-2.9,3.6-4.3c1.4-1.4,2.9-2.7,4.5-3.8l0,0l0,0
			c0.1,0.1,0.2,0.1,0.2,0.2c0.7,0.5,1.4,1,2.1,1.4c1.4,0.8,3.1,1.4,4.7,1.6c0.9,0.1,1.7,0.2,2.5,0.2c0.9,0,1.7-0.2,2.3-0.5
			c0.1-0.1,0.2-0.1,0.2-0.2c0-0.1,0-0.2-0.1-0.3c-0.7-0.7-1.4-1.3-2.2-1.8c-1.4-0.9-3-1.5-4.7-1.7c-1.1-0.2-2.2-0.1-3.3,0
			c1.8-1,3.8-1.9,6.4-2.8c0.9,0.2,1.8,0.4,2.6,0.4c2.1,0.2,3.9-0.1,5.5-0.8c1-0.4,3.6-2.7,4.4-3.2c-0.8,0.5,0.8-0.5,0,0
			c0.1-0.1,0.1,0.2,0,0c0,0,0.1,0,0,0c-0.1,0,0.1,0,0,0c-0.2,0,0.2,0,0,0c-0.4,0,0.4,0.1,0,0c-0.4-0.1-2.2-0.6-2.7-0.6
			c-1.8-0.1-3.9-0.2-5.8,0.5c-1.7,0.6-3,1.7-4.3,2.8c-0.6,0.2-1.1,0.4-1.6,0.6c0.3-0.4,0.6-0.9,0.8-1.3c0.7-1.3,1.1-2.7,1.4-4.3
			c0.2-1.5,0.1-3-0.2-4.5c0-0.1-0.1-0.2-0.2-0.2c-0.1,0-0.2,0-0.3,0.1c-0.7,0.5-1.2,1.1-1.7,1.8c-0.8,1.2-1.4,2.7-1.5,4.2
			c-0.1,0.7,0,1.5,0.1,2.5c0.1,0.6,0.2,1.2,0.3,1.9l0.1,0.4c-1.9,0.8-3.5,1.6-5,2.6c-0.9,0.6-1.8,1.3-2.7,2c0.2-0.4,0.3-0.8,0.5-1.1
			c1.3-3.5,1.6-6.2,0.8-8.6c0-0.1-0.1-0.2-0.3-0.2c-0.1,0-0.2,0-0.3,0.1c-0.7,0.7-1.3,1.4-1.8,2c-0.5,0.7-0.9,1.4-1.1,2.2
			c-0.2,0.8-0.2,1.7-0.2,2.5c0,1.5,0.3,3,0.8,4.5c-1.5,1.4-2.8,3-4.1,4.7c0.1-0.3,0.2-0.7,0.2-1c0.2-1.5,0.2-3-0.1-4.6
			c-0.3-1.6-0.9-3-1.7-4.2c-0.1-0.1-0.1-0.2-0.3-0.1c-0.1,0-0.2,0.1-0.2,0.1c-0.5,0.8-0.9,1.7-1.2,2.7c-0.4,1.6-0.4,3.3,0,4.9
			c0.4,1.4,1.1,2.8,2.1,3.8c-0.2,0.3-0.4,0.7-0.7,1c-0.8,1.2-1.4,2.6-2,3.9c-0.1-0.5-0.2-1-0.3-1.5c-0.4-1.5-1.2-3-2.1-4.3
			c-1-1.3-2.2-2.4-3.5-3.2c-0.1,0-0.2-0.1-0.3,0c-0.1,0-0.2,0.1-0.2,0.2c-0.2,0.9-0.2,1.8,0,2.7c0.3,1.6,1,3.1,2,4.5
			c1,1.2,2.3,2.3,3.8,3.1c-1.4,3.4-2.2,6.9-2.4,10.5c0,0.1,0,0.2,0.1,0.3l0.1,0.1c0.1,0.1,0.3,0.1,0.5,0s0.2-0.2,0.2-0.3
			c0.2-2.5,0.6-5,1.4-7.4c0.2,0.1,0.4,0.1,0.6,0.2C174.5,32.8,175.1,32.9,175.6,33.1L175.6,33.1z"/>
	</g>
</g>
</svg>
