<?xml version="1.0" encoding="utf-8"?>
<!-- Generator: Adobe Illustrator 26.5.0, SVG Export Plug-In . SVG Version: 6.00 Build 0)  -->
<svg version="1.1" id="Capa_1" xmlns="http://www.w3.org/2000/svg" xmlns:xlink="http://www.w3.org/1999/xlink" x="0px" y="0px"
	 viewBox="0 0 370 77.8" style="enable-background:new 0 0 370 77.8;" xml:space="preserve">
<style type="text/css">
	.st0{fill:#102423;}
	.st1{fill:#DE1D20;}
</style>
<g>
	<path class="st0" d="M26.2,13.6c-4.5,0-8.8,1.3-11.8,3.3V6.1c3-1.7,6.9-2.6,10.8-2.6c5.5,0,10.9,1.5,14.6,3.6l-2.2,8.8
		C33.9,14.4,29.8,13.6,26.2,13.6z M11.6,7.7v21c0,4.9,1.5,9.1,4.3,12.3H3.1C1.2,37.8,0,33.7,0,28.8C0,19,4.3,11.5,11.6,7.7z
		 M25.3,54C16,54,8.9,50.2,4.8,43.9h19.7c5.2,0,9.7-0.7,13.2-2.3l2.2,8.8C36.2,52.7,30.7,54,25.3,54z M79.9,35c0,3-0.5,5.5-1.5,7.7
		H67c0.9-1.7,1.5-4.3,1.5-7.5c0-6.7-2.5-10.6-7.2-10.6c-1.3,0-2.8,0.3-4,0.8v-8.7c1.3-0.4,2.7-0.7,4.4-0.7
		C72.6,16,79.9,23.5,79.9,35z M61.5,45.4h15.8c-2.8,5.4-8.4,8.6-15.8,8.6C50.3,54,43,46.6,43,35c0-8.6,4.3-14.9,11.4-17.4V35
		C54.5,41.6,57.1,45.4,61.5,45.4z M97.2,16v37.2H85.9v-35L97.2,16z M141,27.6v25.5h-11.2v-21c0-5.2-0.8-7.2-4.3-7.2
		c-1.3,0-2.4,0.2-3.6,0.7c-0.1-2.7-0.6-4.9-1.7-6.4c3-2.2,6.3-3.3,10-3.3C136.4,16,141,19.7,141,27.6z M108.1,16
		c6.5,0,10.9,3.8,10.9,11.6v25.5h-11.2v-21c0-5.2-0.8-7.2-4.3-7.2c-1.2,0-2.4,0.2-3.6,0.7v-7.6C102.5,16.6,105.3,16,108.1,16z
		 M164.7,45c1.3,0,2.6-0.3,3.8-0.8c0.1,2.8,0.8,5,1.7,6.4c-3.1,2.4-7,3.4-10.5,3.4c-6.6,0-10.9-3.8-10.9-11.7V18.1l11.2-2.2v23.3
		C160.2,42.9,161.1,45,164.7,45z M181.6,54c-6.7,0-10.2-4.7-10.2-11.8V16.8h11.3v24.7c0,2.9,1.1,4.4,3.4,4.4c0.6,0,1.2-0.1,1.8-0.2
		v6.6C186.4,53.3,184.1,54,181.6,54z M204,16v37.2h-11.3v-35L204,16z M227,27.6v25.5h-11.2v-21c0-5.2-1-7.2-4.7-7.2
		c-1.4,0-2.9,0.3-4.3,0.8v-7.6c2.8-1.5,5.8-2.2,8.9-2.2C222.2,16,227,19.7,227,27.6z M241.7,12.3c-3.7,0-6.5-2.6-6.5-6
		c0-3.4,2.8-6.1,6.5-6.1c3.5,0,6.3,2.6,6.3,6.1C248.1,9.7,245.2,12.3,241.7,12.3z M247.1,53.1h-11.3v-35l11.3-2.2V53.1z M271.9,45
		c1.1,0,2.4-0.3,3.4-0.7v8.1c-1.3,0.7-2.9,1.2-4.4,1.3c-1,0.2-2,0.3-2.9,0.2c-7-0.3-14.1-5.7-14.1-18.4c0-13.7,9.1-19.2,16.4-19.5
		c0.6,0,1.2,0,1.8,0.1c2.2,0.1,4.1,0.8,5.9,1.8V2.2L289.4,0v25.5h-5.4c-3-0.3-6.4-0.6-9.6-0.6h-2c-4.5,0.3-6.9,3.6-6.9,10.4
		C265.5,42.5,268.1,45,271.9,45z M279.3,53.1l-1.3-6.1V28.2h11.3v24.9H279.3z M312.1,16c10,0,14.2,3.9,14.2,13.4v0.8h-11.1
		c-0.5-3.3-2.2-5.3-6.2-5.3c-2.5,0-5.9,0.6-9.8,1.8l-1.5-8C303.2,16.9,307.2,16,312.1,16z M310,46.9c0.8,0,1.8-0.1,2.6-0.4
		c0.3,2.2,1,4,2,5.4c-2.9,1.3-5.9,2.2-8.7,2.2c-6.4,0-10.9-3.8-10.9-10c0-6.8,5.4-10.4,15.8-10.9c1-0.1,2.2-0.1,3.3-0.2h12.1v7.5
		c0,1,0.1,2,0.3,2.8c0.3,1.9,1.5,2.8,3.4,2.8c0.6,0,1.2-0.1,1.8-0.1v6.5c-1,0.7-2.5,1.3-4.2,1.5c-1,0.1-2.1,0.2-3.1,0.1
		c-4.3-0.3-7.2-2.4-8.4-6.8c-0.6-2.3-0.8-5-0.8-8.2h-3.2c-0.3,0-0.8,0-1,0.1c-3.9,0.1-5.4,1.7-5.4,4.1
		C305.6,45.5,307.2,46.9,310,46.9z M352.5,45c1.1,0,2.4-0.3,3.4-0.7v8.1c-1.3,0.7-2.9,1.2-4.4,1.3c-1,0.2-2,0.3-2.9,0.2
		c-7-0.3-14.1-5.7-14.1-18.4c0-13.7,9.1-19.2,16.4-19.5c0.6,0,1.2,0,1.8,0.1c2.2,0.1,4.1,0.8,5.9,1.8V2.2L370,0v25.5h-5.4
		c-3-0.3-6.4-0.6-9.6-0.6h-2c-4.5,0.3-6.9,3.6-6.9,10.4C346.2,42.5,348.7,45,352.5,45z M360,53.1l-1.3-6.1V28.2H370v24.9H360z"/>
	<path class="st1" d="M300.6,59.7c0.8-0.1,1.3,0,1.7,0.1c0.4,0.1,0.6,0.4,0.6,0.7c0,0.5-0.8,1.1-2.4,1.8c0.2,1.5,0.3,2.9,0.4,4.2
		c0.1,1.3,0.1,2.4-0.1,3c-0.2,0.7-0.5,1-0.9,1.1c-0.5,0-0.9-0.2-1.2-0.6c-0.3-0.5-0.6-1.2-0.8-2.3c-0.2-1.1-0.5-2.5-0.8-4.3
		c-1.9,0.6-3.3,1.1-4.2,1.4c-1.2,4.3-2,6.5-2.5,6.5c-0.4,0-1-0.2-1.7-0.7c-0.7-0.5-1.1-1-1.1-1.6c0-0.3,0.3-1.4,0.9-3.2
		c-0.3-0.2-0.7-0.5-0.9-0.8c-0.3-0.4-0.4-0.8-0.4-1.1c-0.1-0.6,0.9-1.3,2.7-2.1c0.1-0.4,0.2-0.8,0.4-1.3c0.1-0.5,0.5-1.7,1-3.6
		c0.5-1.9,0.9-3.4,1.2-4.7c0.1-0.6,0.7-1.2,1.7-1.8c1-0.6,1.8-0.9,2.4-1c0.7-0.1,1.4,0.8,2,2.7c0.7,1.8,1.3,4.3,1.8,7.4L300.6,59.7z
		 M293.9,60.8c0.6-0.1,1.4-0.3,2.5-0.5c-0.1-0.6-0.3-1.5-0.5-2.9c-0.2-1.3-0.4-2.3-0.5-2.9C295.1,55.6,294.7,57.7,293.9,60.8z
		 M315,54.5c0.7-0.1,1.5,0.5,2.5,1.7c0.9,1.2,1.5,2.5,1.6,3.7c0.1,0.8-0.2,1.7-0.8,2.8c-0.6,1.1-1.3,2.2-2.2,3.2
		c-0.9,1-2,1.9-3.3,2.7c-1.2,0.8-2.5,1.2-3.6,1.3l-0.3,0c-0.8,5.2-1.5,7.8-2,7.8c-0.4,0-0.9-0.3-1.4-0.9c-0.5-0.6-0.8-1.2-0.8-1.6
		c0-0.4,0.1-1.8,0.5-4.2c1.1-6.9,1.5-12.1,1.2-15.5c0-0.6,0.2-0.9,0.8-0.9c0.5,0,1.1,0.2,1.8,0.6c0.8,0.5,1.3,1.1,1.5,1.9
		C312,55.5,313.5,54.6,315,54.5z M309.4,66.5c1.5-0.4,2.8-1.4,4.1-2.8c1.2-1.5,1.8-2.7,1.7-3.7c-0.1-1-0.4-1.5-1-1.4
		c-0.8,0.1-1.6,0.6-2.5,1.6c-0.3,0.4-0.7,1-1.1,1.8c-0.4,0.8-0.7,1.7-0.9,2.7L309.4,66.5z M330.6,53.2c0.7-0.1,1.5,0.5,2.5,1.7
		c0.9,1.2,1.5,2.5,1.6,3.7c0.1,0.8-0.2,1.7-0.8,2.8c-0.6,1.1-1.3,2.2-2.2,3.2c-0.9,1-2,1.9-3.3,2.7c-1.2,0.8-2.5,1.2-3.6,1.3l-0.3,0
		c-0.8,5.2-1.5,7.8-2,7.8c-0.4,0-0.9-0.3-1.4-0.9c-0.5-0.6-0.8-1.2-0.8-1.6c0-0.4,0.1-1.8,0.5-4.2c1.1-6.9,1.5-12.1,1.2-15.5
		c0-0.6,0.2-0.9,0.8-0.9c0.5,0,1.1,0.2,1.8,0.6c0.8,0.5,1.3,1.1,1.5,1.9C327.6,54.2,329.1,53.3,330.6,53.2z M325,65.2
		c1.5-0.4,2.8-1.4,4.1-2.8c1.2-1.5,1.8-2.7,1.7-3.7c-0.1-1-0.4-1.5-1-1.4c-0.8,0.1-1.6,0.6-2.5,1.6c-0.3,0.4-0.7,1-1.1,1.8
		c-0.4,0.8-0.7,1.7-0.9,2.7L325,65.2z M338.3,48.9c0-0.5,0.1-1,0.5-1.6c0.4-0.6,0.8-0.9,1.3-0.9c0.4,0,1,0.4,1.7,1.4
		c0.7,1,1,1.7,1.1,2.2c0,0.5-0.1,0.8-0.4,1.1c-0.3,0.3-0.6,0.4-0.9,0.5c-0.6,0-1.2-0.3-2-0.9C338.7,50,338.3,49.4,338.3,48.9z
		 M339,52.5c0.7-0.1,1.3,0.3,1.9,1c0.6,0.7,0.9,1.5,1,2.2c0,0.4-0.2,1.7-0.7,4.1c-0.5,2.3-1,4.5-1.4,6.6c-0.2,0.8-0.6,1.2-1.3,1.2
		c-0.4,0-0.8-0.1-1.2-0.4c-0.3-0.3-0.5-0.7-0.6-1.2c0-0.5,0.1-1.8,0.4-3.9c0.3-2.1,0.6-3.9,0.7-5.3c0.2-1.5,0.3-2.5,0.5-3.2
		C338.5,52.9,338.7,52.5,339,52.5z M348.4,63.8c1-0.6,1.8-1.6,2.5-3c0.7-1.5,0.9-2.8,0.8-4.1c-0.1-1.2-0.3-2.1-0.7-2.5
		c-0.8,0.6-1.5,1.6-2.2,3.3c-0.7,1.6-1,3-0.9,4.2C347.9,62.8,348.1,63.5,348.4,63.8z M344,62.2c-0.2-2.4,0.4-4.8,1.7-7.1
		c1.3-2.3,2.7-3.5,4.2-3.6c1.5-0.1,2.8,0.3,3.8,1.3c1.1,0.9,1.7,2.1,1.8,3.6c0.1,1.5-0.1,3-0.7,4.5c-0.6,1.6-1.4,2.9-2.6,4
		c-1.2,1.1-2.5,1.7-3.9,1.8c-1.1,0.1-2-0.3-2.9-1.2C344.6,64.7,344.1,63.6,344,62.2z"/>
</g>
</svg>
