<svg width="371" height="108" viewBox="0 0 371 108" fill="none" xmlns="http://www.w3.org/2000/svg">
<path d="M67.9791 26L70.1391 46.08H57.9791L46.5391 78.16L41.2591 63.92L54.8591 26H67.9791ZM23.6591 26L44.4591 82H32.2991L19.7391 46.08H8.77907L10.8591 26H23.6591ZM61.0991 82L57.8191 49.12H70.4591L73.8991 82H61.0991ZM5.01907 82L8.45907 49.12H19.8991L17.1791 82H5.01907ZM89.4509 35.2C85.2109 35.2 82.0109 32.16 82.0109 28.32C82.0109 24.4 85.2109 21.36 89.4509 21.36C93.4509 21.36 96.7309 24.4 96.7309 28.32C96.7309 32.16 93.4509 35.2 89.4509 35.2ZM95.6909 82H82.7309V41.84L95.6909 39.36V82ZM135.422 82H122.462V23.52L135.422 21.04V82ZM161.822 52.72V82H148.942V57.92C148.942 52 147.742 49.68 143.502 49.68C141.982 49.68 140.142 50.08 138.622 50.64V42C141.662 40.32 145.342 39.36 148.782 39.36C156.302 39.36 161.822 43.68 161.822 52.72ZM188.678 72.64C190.198 72.64 191.718 72.32 193.078 71.68C193.238 74.88 193.958 77.44 195.078 79.04C191.478 81.76 187.078 82.96 183.078 82.96C175.478 82.96 170.598 78.64 170.598 69.52V41.84L183.478 39.36V66.08C183.478 70.32 184.518 72.64 188.678 72.64ZM208.038 82.96C200.358 82.96 196.358 77.6 196.358 69.44V40.32H209.318V68.72C209.318 72 210.598 73.76 213.238 73.76C213.958 73.76 214.598 73.68 215.318 73.52V81.04C213.638 82.16 210.918 82.96 208.038 82.96ZM255.185 79.6C251.505 81.36 245.345 82.96 239.585 82.96C226.465 82.96 217.985 74.4 217.985 61.2C217.985 57.36 218.705 54 219.985 51.2H232.145C231.345 52.56 230.785 54.4 230.625 56.88L244.385 56.72C245.025 52.4 243.345 48.16 238.625 48.16H221.825C225.265 42.4 231.505 39.36 238.945 39.36C253.585 39.36 258.225 51.04 255.825 62.96C251.345 64.24 239.185 64.56 230.945 64.4C232.065 71.2 236.545 73.28 241.985 73.28C245.745 73.28 250.225 72.4 253.505 71.36L255.185 79.6ZM289.856 51.04C286.016 51.12 282.576 51.44 279.696 52.16V42.48C282.896 40.32 286.816 39.28 290.336 39.36L289.856 51.04ZM276.816 39.36V82H263.856V41.84L276.816 39.36ZM320.629 40.24V49.44H290.949V41.36L297.029 41.12L298.469 30.4L309.669 28.16V40.64L320.629 40.24ZM321.189 80.96C318.629 81.76 314.949 82.96 310.629 82.96C302.469 82.96 296.709 78.96 296.709 66.48V52.64H309.669V65.76C309.669 70.16 310.789 72.56 315.669 72.56C316.949 72.56 318.549 72.4 320.309 72.16L321.189 80.96ZM367.097 61.2C367.097 64.64 366.537 67.52 365.417 70H352.217C353.257 68 353.977 65.04 353.977 61.44C353.977 53.76 351.097 49.28 345.737 49.28C344.297 49.28 342.537 49.6 341.097 50.16V40.16C342.537 39.68 344.217 39.36 346.137 39.36C358.697 39.36 367.097 48 367.097 61.2ZM345.897 73.12H363.977C360.777 79.28 354.377 82.96 345.897 82.96C333.097 82.96 324.777 74.48 324.777 61.2C324.777 51.28 329.737 44.08 337.897 41.28V61.2C337.897 68.8 340.857 73.12 345.897 73.12Z" fill="#102423"/>
<path d="M230.655 87.6901C231.329 87.6345 231.927 88.0373 232.451 88.8985C232.974 89.7597 233.266 90.5617 233.327 91.3045C233.389 92.0473 233.333 93.165 233.161 94.6576C233.004 96.1315 232.671 97.5764 232.162 98.9925C231.669 100.39 231.068 101.118 230.36 101.176C229.79 101.223 229.473 100.858 229.408 100.081C229.344 99.3034 229.464 98.0152 229.768 96.2161C230.071 94.417 230.2 93.241 230.155 92.6883C230.109 92.1355 230 91.8662 229.827 91.8805C229.464 91.9104 229.065 92.3434 228.63 93.1794C228.194 94.0154 227.678 95.1277 227.079 96.5163C226.498 97.9035 226.137 98.7942 225.995 99.1885C225.854 99.5829 225.732 99.8973 225.63 100.132C225.545 100.365 225.443 100.608 225.325 100.861C224.848 101.823 224.113 101.883 223.122 101.043C222.617 100.615 222.349 100.211 222.318 99.8313C222.312 99.7622 222.396 99.0944 222.57 97.8278C222.759 96.5425 222.788 95.0966 222.655 93.4901C222.6 92.8164 222.494 92.4859 222.338 92.4988C222.131 92.5159 221.906 92.7431 221.664 93.1806C221.422 93.618 221.061 94.4044 220.581 95.5397C220.101 96.6751 219.682 97.614 219.326 98.3565C218.079 100.947 217.076 102.273 216.315 102.336C215.935 102.367 215.434 102.087 214.811 101.495C214.206 100.901 213.889 100.44 213.862 100.112C213.834 99.7666 213.957 98.939 214.231 97.6293C214.522 96.3009 214.659 94.9069 214.642 93.4473C214.644 91.9862 214.654 90.8462 214.673 90.0271C214.71 89.2067 214.884 88.7836 215.194 88.7579C215.851 88.7037 216.504 88.9281 217.154 89.4309C217.821 89.9151 218.172 90.3817 218.209 90.8309C218.293 91.8501 218.069 93.66 217.536 96.2607C218.507 93.276 219.365 91.2399 220.11 90.1522C220.904 89.0257 221.707 88.4289 222.519 88.3619C222.968 88.3248 223.555 88.6938 224.28 89.4688C225.022 90.2423 225.423 90.9919 225.483 91.7174C225.541 92.4256 225.584 93.0482 225.611 93.5852C226.035 92.1935 226.744 90.8827 227.739 89.6528C228.733 88.4228 229.705 87.7686 230.655 87.6901ZM236.719 83.9284C236.682 83.4793 236.843 83.0051 237.201 82.5059C237.576 81.988 237.953 81.7133 238.333 81.6819C238.731 81.6491 239.236 82.077 239.848 82.9657C240.461 83.8543 240.785 84.5145 240.82 84.9464C240.855 85.361 240.743 85.692 240.485 85.9393C240.227 86.1867 239.951 86.3225 239.658 86.3468C239.157 86.3882 238.551 86.1077 237.84 85.5055C237.13 84.9033 236.756 84.3776 236.719 83.9284ZM237.375 87.1353C237.979 87.0854 238.544 87.3867 239.067 88.0391C239.608 88.6902 239.904 89.3353 239.957 89.9745C239.984 90.3027 239.78 91.5109 239.343 93.5993C238.923 95.6689 238.494 97.6348 238.056 99.4972C237.905 100.188 237.509 100.56 236.87 100.613C236.49 100.644 236.142 100.534 235.825 100.281C235.525 100.011 235.356 99.6506 235.319 99.2014C235.28 98.735 235.402 97.5771 235.684 95.7276C235.982 93.8594 236.191 92.2769 236.31 90.98C236.445 89.6644 236.583 88.7052 236.724 88.1021C236.882 87.4804 237.098 87.1581 237.375 87.1353ZM249.446 86.1648C250.102 86.1106 250.782 86.4458 251.486 87.1703C252.189 87.8949 252.566 88.5682 252.618 89.19C252.652 89.6046 252.488 89.8269 252.125 89.8569C251.917 89.874 251.609 89.8212 251.199 89.6985C250.787 89.5586 250.374 89.5057 249.959 89.54C249.562 89.5728 248.977 89.7602 248.206 90.1022C247.451 90.4427 247.092 90.8376 247.129 91.2867C247.144 91.4595 247.398 91.6907 247.891 91.9804C248.385 92.2701 248.922 92.5649 249.503 92.8648C250.085 93.1646 250.634 93.6062 251.152 94.1896C251.668 94.7557 251.956 95.4015 252.016 96.127C252.075 96.8353 251.607 97.5957 250.613 98.4082C249.637 99.2193 248.44 99.6834 247.024 99.8003C245.624 99.9158 244.397 99.6954 243.343 99.139C242.288 98.5825 241.733 97.9674 241.677 97.2937C241.622 96.62 241.87 96.2604 242.423 96.2147C242.648 96.1962 242.922 96.2604 243.248 96.4075C244.153 96.8372 245.244 96.9992 246.523 96.8937C247.818 96.7867 248.452 96.5605 248.423 96.215C248.395 95.8695 248.113 95.5101 247.578 95.1369C247.058 94.745 246.49 94.3919 245.873 94.0776C245.273 93.7619 244.701 93.3656 244.157 92.8887C243.629 92.3932 243.345 91.8949 243.303 91.3939C243.226 90.4611 243.989 89.3807 245.592 88.1526C247.194 86.9072 248.478 86.2446 249.446 86.1648ZM272.779 84.2122C273.677 84.138 274.497 84.4791 275.237 85.2354C275.994 85.9729 276.41 86.7995 276.486 87.7151C276.607 89.1834 276.492 90.7408 276.141 92.3873C275.806 94.015 275.389 95.2843 274.89 96.1951C274.409 97.1045 273.874 97.5834 273.287 97.6319C272.717 97.679 272.398 97.2965 272.331 96.4846C272.28 95.8628 272.462 94.5868 272.876 92.6568C273.18 91.0665 273.304 89.9344 273.248 89.2607C273.192 88.587 273.078 88.2573 272.905 88.2715C272.681 88.2901 272.466 88.4209 272.26 88.664C272.071 88.9057 271.914 89.1186 271.79 89.3028C271.667 89.4869 271.521 89.7251 271.354 90.0171C271.202 90.2905 271.067 90.5452 270.947 90.7812C270.843 90.9985 270.702 91.2884 270.523 91.651C270.36 91.9949 270.228 92.2841 270.125 92.5187C270.022 92.736 269.889 93.0252 269.727 93.3864C268.369 96.5248 267.232 98.1318 266.317 98.2074C265.954 98.2373 265.47 97.9642 264.866 97.388C264.261 96.7944 263.946 96.3508 263.922 96.0572C263.906 95.8672 263.993 95.4512 264.184 94.8094C264.39 94.1488 264.532 93.6502 264.608 93.3134C264.701 92.9579 264.766 92.5873 264.803 92.2016C264.858 91.8144 264.894 91.4027 264.91 90.9666C264.925 90.5132 264.931 90.1648 264.928 89.9216C264.943 89.6769 264.946 89.294 264.938 88.7729C264.908 86.5143 264.935 85.2599 265.018 85.0095C265.119 84.7577 265.239 84.626 265.377 84.6146C266.033 84.5604 266.687 84.7848 267.337 85.2876C267.986 85.7732 268.329 86.2406 268.366 86.6897C268.454 87.7607 268.305 89.321 267.917 91.3705C268.878 89.3085 269.764 87.6178 270.577 86.2984C271.406 84.9604 272.14 84.265 272.779 84.2122ZM282.13 94.2407C283.029 93.7491 283.772 92.8443 284.359 91.5262C284.945 90.2081 285.193 88.9962 285.102 87.8907C285.011 86.7851 284.792 86.0379 284.447 85.6489C283.74 86.1421 283.072 87.1104 282.443 88.5537C281.832 89.9955 281.57 91.2433 281.657 92.2971C281.742 93.3336 281.9 93.9814 282.13 94.2407ZM278.206 92.8429C278.028 90.6836 278.524 88.5816 279.694 86.5371C280.882 84.4911 282.132 83.4139 283.445 83.3055C284.758 83.1971 285.902 83.5722 286.877 84.4309C287.851 85.2722 288.392 86.3494 288.501 87.6622C288.608 88.9578 288.406 90.305 287.895 91.7038C287.384 93.1025 286.605 94.2974 285.556 95.2884C284.506 96.2621 283.342 96.8017 282.064 96.9073C281.113 96.9857 280.258 96.6302 279.497 95.8408C278.736 95.0514 278.306 94.0521 278.206 92.8429ZM291.195 87.1006L290.798 84.1854C290.718 83.218 290.98 82.7094 291.585 82.6595C291.93 82.631 292.278 82.7327 292.628 82.9647C292.994 83.1953 293.287 83.5799 293.505 84.1184C294.05 83.5517 294.655 83.0843 295.32 82.7163C296.001 82.3296 296.61 82.1142 297.145 82.0699C298.406 81.9658 299.062 82.2161 299.112 82.8207C299.137 83.1316 299.096 83.3698 298.988 83.5353C298.896 83.682 298.818 83.7928 298.755 83.8676C298.708 83.941 298.613 84.0446 298.467 84.1783C298.338 84.2934 298.24 84.3797 298.175 84.4372C297.8 84.7291 297.53 84.934 297.365 85.052C296.628 85.5998 296.011 86.2421 295.516 86.9787C295.018 87.698 294.682 88.6737 294.505 89.9058C294.203 91.9309 293.868 93.4543 293.5 94.476C293.148 95.479 292.695 96.0034 292.143 96.049C291.607 96.0932 291.18 95.8676 290.86 95.3722C290.559 94.8754 290.389 94.4024 290.352 93.9532C290.313 93.4868 290.421 92.7823 290.673 91.8396C290.943 90.8956 291.111 90.0903 291.178 89.4239C291.261 88.7388 291.266 87.9644 291.195 87.1006ZM316.235 80.6243C316.909 80.5686 317.507 80.9714 318.03 81.8326C318.554 82.6938 318.846 83.4958 318.907 84.2386C318.969 84.9814 318.913 86.0991 318.741 87.5917C318.584 89.0656 318.251 90.5105 317.742 91.9266C317.249 93.3239 316.648 94.0518 315.94 94.1103C315.37 94.1574 315.052 93.7922 314.988 93.0149C314.924 92.2375 315.044 90.9493 315.347 89.1502C315.651 87.3511 315.78 86.1752 315.734 85.6224C315.689 85.0696 315.58 84.8003 315.407 84.8146C315.044 84.8446 314.645 85.2775 314.21 86.1135C313.774 86.9495 313.257 88.0618 312.659 89.4504C312.078 90.8376 311.717 91.7284 311.575 92.1227C311.434 92.517 311.312 92.8314 311.21 93.066C311.125 93.2991 311.023 93.5423 310.905 93.7955C310.427 94.7567 309.693 94.8173 308.702 93.9774C308.197 93.5495 307.929 93.1455 307.898 92.7655C307.892 92.6964 307.976 92.0285 308.15 90.7619C308.339 89.4766 308.368 88.0307 308.235 86.4242C308.179 85.7505 308.074 85.4201 307.918 85.4329C307.711 85.45 307.486 85.6773 307.244 86.1147C307.002 86.5521 306.641 87.3385 306.161 88.4738C305.68 89.6092 305.262 90.5481 304.906 91.2906C303.659 93.8807 302.655 95.2071 301.895 95.2698C301.515 95.3012 301.014 95.0209 300.391 94.4288C299.786 93.8353 299.469 93.3744 299.442 93.0462C299.414 92.7007 299.537 91.8731 299.811 90.5634C300.101 89.235 300.238 87.841 300.222 86.3814C300.223 84.9203 300.234 83.7803 300.253 82.9612C300.29 82.1408 300.463 81.7177 300.774 81.692C301.431 81.6378 302.084 81.8622 302.734 82.365C303.4 82.8492 303.752 83.3159 303.789 83.765C303.873 84.7842 303.649 86.5941 303.116 89.1948C304.087 86.2101 304.945 84.174 305.69 83.0863C306.484 81.9598 307.287 81.3631 308.099 81.296C308.548 81.2589 309.135 81.6279 309.86 82.4029C310.602 83.1764 311.003 83.926 311.063 84.6515C311.121 85.3598 311.164 85.9824 311.191 86.5193C311.615 85.1277 312.324 83.8169 313.319 82.5869C314.313 81.3569 315.285 80.7027 316.235 80.6243ZM331.536 85.4135C331.869 85.6642 332.046 85.9018 332.064 86.1264C332.083 86.351 332.017 86.826 331.869 87.5513C331.72 88.2767 331.627 88.8409 331.591 89.2439C331.553 89.6297 331.518 89.937 331.484 90.1658C331.468 90.3932 331.458 90.5768 331.452 90.7164C331.444 90.8387 331.423 90.997 331.387 91.1913C331.368 91.3842 331.346 91.5425 331.321 91.6663C331.313 91.7714 331.289 91.9038 331.25 92.0636C331.227 92.2046 331.193 92.3204 331.148 92.4111C331.102 92.4845 331.048 92.5672 330.986 92.6593C330.894 92.806 330.727 92.8894 330.485 92.9094C330.243 92.9293 329.921 92.7124 329.518 92.2587C329.133 91.8036 328.825 91.2376 328.595 90.5609C327.108 92.3533 325.812 93.2952 324.707 93.3865C323.964 93.4478 323.127 93.1082 322.196 92.3676C321.264 91.6097 320.764 90.8248 320.697 90.0129C320.629 89.1837 320.903 87.9784 321.521 86.3969C322.138 84.8154 323.032 83.3241 324.204 81.923C325.392 80.5204 326.617 79.7671 327.878 79.6629C328.604 79.603 329.476 79.9571 330.496 80.7251C331.516 81.4931 332.056 82.2312 332.114 82.9395C332.171 83.6305 331.978 84.4551 331.536 85.4135ZM324.333 90.1301C325.024 90.0731 325.901 89.5311 326.964 88.5041C328.043 87.4584 328.662 86.2073 328.82 84.7507C328.82 84.542 328.957 84.4089 329.23 84.3516C329.097 83.3712 328.893 82.8924 328.616 82.9152C327.925 82.9723 327.185 83.4856 326.395 84.4552C325.623 85.4234 325.003 86.4399 324.534 87.5047C324.083 88.5681 323.877 89.3417 323.917 89.8254C323.928 89.9636 323.953 90.0571 323.992 90.1061C324.047 90.1364 324.161 90.1444 324.333 90.1301ZM341.504 78.564C342.16 78.5098 342.84 78.845 343.543 79.5696C344.247 80.2942 344.624 80.9674 344.675 81.5893C344.71 82.0039 344.545 82.2262 344.183 82.2561C343.975 82.2732 343.667 82.2205 343.256 82.0978C342.845 81.9579 342.432 81.905 342.017 81.9392C341.62 81.972 341.035 82.1594 340.263 82.5014C339.509 82.842 339.15 83.2369 339.187 83.686C339.202 83.8588 339.455 84.09 339.949 84.3797C340.442 84.6694 340.98 84.9642 341.561 85.264C342.143 85.5639 342.692 86.0055 343.21 86.5889C343.726 87.155 344.014 87.8008 344.074 88.5263C344.133 89.2346 343.665 89.995 342.671 90.8075C341.695 91.6186 340.498 92.0826 339.081 92.1996C337.682 92.3151 336.455 92.0947 335.401 91.5382C334.346 90.9818 333.791 90.3667 333.735 89.693C333.679 89.0193 333.928 88.6596 334.481 88.614C334.705 88.5954 334.98 88.6597 335.306 88.8068C336.211 89.2364 337.302 89.3985 338.581 89.2929C339.876 89.186 340.51 88.9597 340.481 88.6143C340.453 88.2688 340.171 87.9094 339.636 87.5362C339.116 87.1442 338.548 86.7911 337.931 86.4769C337.331 86.1612 336.759 85.7649 336.215 85.288C335.687 84.7924 335.403 84.2942 335.361 83.7932C335.284 82.8604 336.047 81.7799 337.65 80.5519C339.252 79.3065 340.536 78.6439 341.504 78.564Z" fill="#DE1D20"/>
</svg>
